<?xml version="1.0" standalone="no"?>
<!DOCTYPE svg PUBLIC "-//W3C//DTD SVG 20010904//EN"
 "http://www.w3.org/TR/2001/REC-SVG-20010904/DTD/svg10.dtd">
<svg version="1.0" xmlns="http://www.w3.org/2000/svg"
 width="1280.000000pt" height="886.000000pt" viewBox="0 0 1280.000000 886.000000"
 preserveAspectRatio="xMidYMid meet">
<g transform="translate(0.000000,886.000000) scale(0.100000,-0.100000)"
fill="#000000" stroke="none">
<path d="M8215 8850 c-55 -5 -188 -13 -295 -20 -227 -13 -524 -42 -730 -70
-611 -86 -993 -199 -1470 -436 -379 -189 -704 -398 -1241 -800 -119 -88 -405
-287 -636 -442 -433 -290 -630 -431 -831 -600 -125 -103 -480 -447 -472 -455
3 -3 59 35 125 85 1336 1005 2739 1656 4195 1948 433 86 797 135 1300 172 231
17 1084 17 1320 0 535 -39 915 -84 1385 -164 l240 -41 435 -7 c379 -7 447 -10
530 -28 196 -41 379 -120 555 -237 53 -36 101 -68 107 -72 27 -16 -35 57 -104
123 -124 119 -225 179 -509 297 -85 36 -221 95 -304 132 -734 330 -1648 537
-2635 595 -102 6 -249 15 -326 20 -161 11 -490 11 -639 0z"/>
<path d="M8505 8129 c-789 -30 -1557 -143 -2278 -335 -201 -53 -556 -159 -566
-169 -8 -8 24 -6 253 20 720 80 1491 115 2156 95 661 -18 953 -52 2044 -231
303 -49 559 -88 570 -87 12 2 -11 13 -54 27 -270 83 -528 200 -602 272 -96 91
-54 159 133 218 69 22 229 53 372 72 48 6 86 13 84 16 -6 6 -291 37 -517 57
-569 50 -1083 64 -1595 45z"/>
<path d="M6990 7623 c-937 -49 -1728 -240 -2595 -628 -296 -133 -844 -421
-1165 -613 -198 -118 -587 -375 -640 -421 -32 -29 -27 -27 70 20 416 205 1100
474 1635 642 1827 577 3727 742 5875 511 392 -42 408 -43 615 -44 647 -2 898
-38 1081 -155 64 -41 70 -32 14 19 -111 100 -378 187 -870 285 -1150 228
-1999 338 -2935 381 -194 9 -937 11 -1085 3z"/>
<path d="M7975 7129 c-707 -18 -1336 -85 -1964 -210 -229 -45 -709 -163 -723
-177 -6 -6 37 -12 109 -16 675 -38 1371 -143 2273 -342 527 -116 910 -218
1264 -334 99 -33 182 -58 184 -56 2 2 -20 23 -49 47 -28 24 -73 72 -100 106
-134 168 -136 302 -8 439 165 174 546 328 1052 425 64 13 117 26 117 30 0 7
-32 10 -330 34 -332 26 -698 45 -1095 55 -214 5 -399 9 -410 8 -11 -1 -155 -5
-320 -9z"/>
<path d="M2599 6561 c-39 -12 -71 -31 -101 -58 -15 -14 -37 -31 -49 -37 -13
-6 -37 -36 -55 -67 -17 -31 -50 -81 -72 -110 -23 -30 -53 -81 -68 -114 l-27
-59 17 -173 c14 -135 17 -211 11 -347 l-7 -173 31 -35 c17 -20 77 -63 134 -96
125 -73 213 -137 292 -213 48 -45 112 -86 295 -187 415 -227 652 -368 798
-476 208 -153 271 -179 350 -147 66 28 49 74 -54 149 -93 68 -207 129 -497
268 -274 130 -423 221 -607 369 -154 123 -338 292 -368 338 -15 23 -51 73 -80
112 -149 199 -212 432 -167 623 30 125 134 301 234 396 45 43 42 52 -10 37z"/>
<path d="M5140 6553 c-288 -15 -520 -48 -756 -107 -200 -50 -1138 -318 -1274
-364 -63 -22 -155 -56 -205 -76 -111 -46 -311 -149 -298 -153 6 -2 70 10 144
26 1479 327 3012 368 4724 125 240 -34 484 -74 805 -134 292 -54 361 -64 530
-80 446 -42 632 -81 798 -170 39 -22 72 -36 72 -33 0 18 -58 78 -114 118 -164
117 -417 199 -1018 331 -282 61 -444 101 -593 144 -843 245 -2096 411 -2815
373z"/>
<path d="M5390 6064 c-231 -8 -617 -39 -650 -51 -8 -3 55 -14 140 -24 423 -51
871 -150 1186 -264 205 -75 352 -143 784 -366 425 -218 788 -394 797 -385 3 3
-7 20 -21 37 -85 100 -118 242 -78 333 25 56 116 153 187 201 136 90 318 159
518 196 62 12 119 24 127 27 21 7 -16 15 -355 71 -662 111 -1157 171 -1695
205 -226 15 -763 26 -940 20z"/>
<path d="M3380 5849 c-184 -12 -371 -35 -515 -64 -256 -52 -260 -51 280 -58
587 -7 858 -26 1380 -98 1072 -148 2220 -458 3459 -934 125 -48 229 -85 232
-82 14 14 -184 111 -661 324 -265 119 -419 181 -645 258 -208 72 -387 148
-627 268 -492 247 -768 326 -1280 367 -297 24 -1343 36 -1623 19z"/>
<path d="M2978 5611 c-91 -3 -169 -9 -172 -12 -4 -3 19 -9 51 -13 118 -13 393
-58 568 -92 1156 -226 1975 -619 2529 -1213 436 -469 685 -1097 713 -1801 l6
-154 65 -71 c195 -213 480 -446 724 -591 382 -227 745 -361 1443 -535 600
-149 1038 -210 1525 -211 448 -1 728 44 1183 192 459 149 718 312 875 553 91
139 127 271 119 432 -6 111 -34 206 -83 276 -26 38 -82 89 -97 89 -3 0 5 -25
19 -56 74 -167 69 -319 -13 -478 -48 -91 -185 -231 -304 -309 -460 -300 -1154
-459 -2076 -474 -792 -13 -1167 67 -1838 393 -340 165 -602 330 -736 463 -180
181 -384 549 -483 872 -145 477 -142 907 8 1225 84 177 178 291 318 385 89 59
320 179 345 179 40 0 -7 26 -169 93 -1281 529 -2528 805 -3868 857 -271 10
-361 10 -652 1z"/>
<path d="M2645 5513 c61 -106 219 -296 325 -389 165 -146 333 -253 597 -379
520 -249 663 -344 663 -441 0 -26 -54 -72 -98 -83 -47 -13 -98 -72 -200 -235
-35 -54 -120 -178 -190 -275 -268 -370 -392 -597 -392 -716 0 -27 6 -48 16
-56 27 -22 122 -23 209 0 480 122 1025 181 1429 152 584 -42 1078 -207 1533
-513 40 -26 77 -48 82 -48 6 0 9 12 6 28 -2 15 -7 59 -10 97 -37 450 -195 912
-435 1272 -108 163 -194 268 -335 408 -569 570 -1469 966 -2610 1149 -181 29
-545 76 -588 76 l-29 0 27 -47z"/>
<path d="M3000 4793 c0 -4 22 -38 49 -77 71 -103 164 -268 210 -373 171 -389
200 -664 110 -1057 -16 -72 -29 -132 -29 -135 0 -4 25 41 55 98 78 144 170
288 315 486 170 233 250 361 250 399 0 26 -14 44 -82 109 -167 161 -431 339
-693 471 -142 70 -185 89 -185 79z"/>
<path d="M10225 4409 c-60 -4 -238 -12 -395 -18 -454 -18 -683 -40 -1100 -106
-118 -19 -327 -48 -465 -65 -323 -39 -379 -49 -690 -121 -143 -34 -313 -71
-379 -84 -65 -13 -122 -27 -126 -32 -11 -10 -40 -110 -34 -115 2 -3 41 1 86 9
789 128 1501 216 2173 268 116 10 264 28 330 41 209 43 274 53 525 79 135 14
256 27 270 30 14 3 92 9 173 15 274 17 549 -17 798 -100 65 -22 122 -40 125
-40 20 0 -35 42 -89 68 -59 29 -262 92 -432 133 -184 45 -472 59 -770 38z"/>
<path d="M1114 4198 c-77 -59 -186 -163 -271 -258 -77 -87 -93 -111 -93 -137
0 -23 5 -33 16 -33 30 0 87 49 117 102 40 70 123 182 203 274 36 41 63 74 61
74 -2 0 -17 -10 -33 -22z"/>
<path d="M1851 4164 c-160 -56 -327 -136 -445 -213 -105 -69 -135 -85 -168
-85 -74 -2 -73 38 4 154 l23 35 -33 -21 c-57 -36 -170 -135 -217 -190 -26 -30
-45 -54 -43 -54 2 0 41 18 87 41 115 56 132 49 56 -24 -36 -35 -52 -56 -40
-53 141 37 272 32 490 -19 290 -68 445 -130 565 -226 58 -47 62 -49 56 -25
-13 52 55 128 141 157 71 23 11 34 -192 35 -105 1 -201 4 -213 8 -39 13 -29
59 23 109 25 24 45 46 45 50 0 3 -15 4 -32 2 -18 -2 -97 -10 -175 -16 -128
-11 -145 -10 -168 5 -14 9 -25 24 -25 34 0 54 105 162 252 260 88 58 89 64 9
36z"/>
<path d="M9155 4004 c-343 -20 -461 -28 -650 -45 -442 -40 -1024 -110 -1355
-163 -126 -20 -135 -23 -141 -46 -10 -34 -11 -130 -1 -130 4 0 93 11 199 25
379 49 923 103 1438 145 271 21 289 24 474 69 257 63 538 86 955 78 265 -5
547 -25 665 -47 55 -10 64 -5 32 19 -60 46 -187 68 -456 81 -210 10 -1057 20
-1160 14z"/>
<path d="M650 3775 c-24 -50 -21 -75 10 -75 11 0 38 -16 60 -36 40 -36 40 -36
67 -19 49 31 73 58 73 81 0 34 -16 38 -55 14 -46 -29 -70 -19 -91 35 -9 25
-22 45 -29 45 -7 0 -23 -20 -35 -45z"/>
<path d="M477 3728 c-9 -24 -22 -63 -29 -88 -14 -48 -40 -64 -54 -33 -4 10
-10 50 -14 88 l-6 70 -17 -54 c-17 -55 -42 -253 -35 -287 2 -14 14 -1 40 46
20 36 58 89 84 118 45 51 47 56 48 118 1 35 1 64 0 64 -1 0 -9 -19 -17 -42z"/>
<path d="M910 3687 c-62 -50 -114 -117 -91 -117 23 0 171 153 160 165 -3 2
-33 -20 -69 -48z"/>
<path d="M1128 3725 c-94 -22 -133 -40 -159 -76 l-23 -32 25 7 c118 37 179 46
179 26 0 -6 -21 -25 -47 -43 -88 -59 -119 -97 -126 -151 -4 -26 -5 -52 -2 -57
3 -4 34 7 69 26 34 19 68 35 74 35 17 0 15 -26 -4 -55 l-16 -25 63 0 c200 -1
367 -86 680 -348 250 -210 470 -499 641 -845 35 -70 66 -127 69 -127 4 0 10
12 13 28 13 52 154 327 194 377 61 77 121 115 196 126 112 15 211 57 302 125
55 41 134 115 134 125 0 3 -18 9 -40 13 -31 5 -45 14 -61 39 -18 28 -20 43
-15 122 4 53 2 85 -3 80 -58 -62 -215 -259 -259 -325 -72 -110 -84 -124 -93
-109 -4 6 -3 25 2 42 11 39 6 44 -25 23 -14 -9 -51 -26 -83 -38 -32 -12 -79
-34 -104 -50 -25 -15 -55 -28 -65 -28 -27 1 79 99 140 129 26 12 45 25 42 28
-3 3 -34 15 -69 28 -142 49 -234 136 -386 364 -117 175 -175 245 -256 310
-122 99 -267 159 -552 227 -178 42 -329 52 -435 29z"/>
<path d="M518 3608 c-72 -77 -104 -122 -152 -213 -32 -59 -37 -77 -35 -125 2
-50 0 -55 -17 -53 -13 1 -27 -9 -38 -27 -9 -16 -51 -72 -92 -125 -74 -93 -113
-166 -160 -295 -46 -124 -29 -146 81 -105 147 53 255 146 319 273 49 97 83
133 168 177 45 23 93 58 125 92 48 52 73 61 73 27 0 -25 -73 -95 -161 -155
-88 -59 -123 -96 -196 -204 -23 -33 -56 -75 -74 -94 -39 -40 -155 -118 -216
-145 -23 -10 -40 -23 -37 -27 8 -14 79 -10 129 6 74 26 457 217 498 250 21 17
78 77 126 135 49 58 101 116 115 129 21 20 26 34 26 73 0 47 -1 48 -30 48 -42
0 -58 35 -36 78 12 23 13 37 6 59 -6 16 -9 40 -8 53 3 25 -2 27 -33 15 -9 -3
-24 1 -33 11 -17 16 -17 28 -1 66 7 17 5 17 -21 3 -24 -12 -32 -12 -49 -1 -11
7 -21 23 -23 35 -2 13 -11 21 -22 21 -11 0 -27 12 -37 26 -19 30 -68 54 -109
54 -20 0 -42 -16 -86 -62z m32 -242 c9 -12 7 -24 -8 -58 -31 -70 -93 -108
-121 -74 -31 38 13 117 75 136 40 12 40 12 54 -4z m-420 -491 c0 -24 -53 -96
-63 -86 -13 13 0 77 19 95 16 17 44 11 44 -9z"/>
<path d="M932 3546 c-20 -19 -34 -37 -31 -40 3 -4 26 12 50 33 24 22 38 40 31
41 -7 0 -29 -15 -50 -34z"/>
<path d="M7670 3569 c-200 -10 -583 -39 -635 -48 -30 -5 -41 -12 -43 -26 -5
-43 4 -45 188 -35 96 6 393 13 660 17 648 8 1121 -11 1455 -58 77 -11 203 -22
280 -25 133 -5 139 -4 112 11 -78 45 -626 139 -956 165 -154 11 -829 11 -1061
-1z"/>
<path d="M2267 3373 c28 -34 81 -108 118 -164 37 -57 69 -106 71 -108 5 -6 88
44 89 53 0 5 -31 20 -69 32 -38 13 -77 31 -88 40 -27 25 -22 61 12 96 17 17
29 32 27 35 -3 2 -42 16 -88 32 -46 15 -93 32 -103 36 -12 5 1 -16 31 -52z"/>
<path d="M1002 3347 c-42 -43 -43 -71 -1 -31 34 32 54 64 41 64 -4 0 -22 -15
-40 -33z"/>
<path d="M3075 3321 c-193 -66 -357 -132 -472 -190 -110 -56 -118 -63 -104
-89 7 -13 21 -22 35 -22 28 0 142 41 386 137 96 39 212 82 257 97 79 26 83 29
93 64 14 51 13 62 -7 61 -10 0 -94 -26 -188 -58z"/>
<path d="M7200 3368 c-91 -4 -171 -11 -179 -13 -23 -9 -4 -147 49 -346 l10
-36 207 0 c115 0 253 -5 308 -11 55 -7 128 -15 162 -18 l62 -7 -16 51 c-14 43
-15 57 -4 94 33 111 202 200 511 268 52 12 96 23 99 26 8 7 -1038 1 -1209 -8z"/>
<path d="M255 3328 c9 -53 15 -64 26 -47 16 25 10 64 -12 77 -20 13 -21 12
-14 -30z"/>
<path d="M1090 3334 c-42 -18 -50 -35 -50 -117 l0 -79 -76 -81 c-42 -45 -71
-83 -65 -85 12 -4 114 44 296 141 100 53 211 94 222 83 10 -10 -15 -32 -57
-51 -44 -20 -52 -35 -17 -35 55 -1 169 -33 242 -69 108 -54 186 -122 335 -290
234 -266 334 -440 455 -793 100 -289 170 -415 304 -540 61 -58 131 -108 131
-94 0 2 -15 43 -34 91 -30 77 -39 91 -88 129 -65 52 -111 107 -141 173 -19 41
-22 66 -23 173 l-1 125 -41 89 c-96 203 -237 430 -368 591 -99 123 -283 300
-432 414 -215 166 -332 221 -487 227 -49 2 -97 1 -105 -2z"/>
<path d="M3051 3035 c-136 -40 -369 -127 -354 -132 6 -2 99 12 206 31 107 20
197 36 200 36 8 0 87 84 87 93 0 12 -19 8 -139 -28z"/>
<path d="M4445 3046 c-270 -25 -501 -62 -785 -128 l-175 -40 -82 -83 c-142
-143 -265 -212 -426 -241 -43 -8 -92 -23 -107 -34 -60 -43 -114 -119 -184
-260 -100 -202 -121 -270 -121 -395 0 -89 3 -106 26 -150 15 -28 52 -74 82
-103 50 -47 60 -52 100 -52 30 0 53 -7 71 -21 21 -17 34 -19 67 -14 76 13 172
71 268 161 91 86 92 86 112 68 42 -38 62 -95 68 -193 l6 -93 50 -44 c28 -24
57 -44 66 -44 24 0 138 44 222 86 149 75 310 194 546 402 112 99 117 102 230
142 318 113 568 144 742 90 67 -20 139 -67 236 -154 114 -102 141 -120 191
-126 43 -5 47 -8 60 -45 44 -128 68 -181 112 -244 84 -119 75 -115 400 -161
156 -22 287 -37 291 -33 4 5 22 44 40 88 17 44 43 90 56 103 l24 22 -25 31
c-16 19 -26 43 -26 62 0 18 -9 160 -20 317 -11 157 -20 300 -20 318 0 37 18
42 45 12 10 -11 25 -20 34 -20 64 0 -318 206 -564 303 -387 153 -778 234
-1180 244 -242 6 -360 -5 -542 -53 -188 -49 -229 -70 -323 -168 -86 -90 -180
-165 -285 -229 -68 -41 -95 -47 -95 -18 0 13 18 29 53 49 91 52 209 146 295
236 93 97 113 108 287 161 200 60 282 70 555 69 260 0 377 -11 620 -60 385
-77 806 -233 1082 -402 117 -72 108 -72 108 1 l0 63 -72 51 c-407 283 -870
458 -1373 518 -182 22 -555 27 -740 11z"/>
<path d="M10953 2970 c26 -16 52 -41 57 -55 9 -24 12 -25 110 -25 55 0 100 4
100 9 0 22 -233 100 -299 101 -8 0 6 -13 32 -30z"/>
<path d="M2569 2963 c5 -10 20 -25 34 -32 21 -11 30 -10 63 7 l39 20 -40 7
c-112 18 -107 18 -96 -2z"/>
<path d="M11250 2973 c0 -3 11 -14 24 -24 14 -11 28 -28 31 -39 6 -20 19 -23
150 -35 57 -5 59 -5 40 11 -38 31 -245 105 -245 87z"/>
<path d="M11558 2947 c11 -12 28 -39 36 -59 15 -35 18 -37 86 -48 39 -7 73
-10 76 -7 9 8 -75 74 -135 106 -70 37 -93 40 -63 8z"/>
<path d="M10750 2904 c31 -26 40 -28 99 -25 36 2 74 6 85 11 18 6 16 9 -19 19
-22 6 -76 14 -120 17 l-80 6 35 -28z"/>
<path d="M2950 2864 c-47 -18 -98 -33 -115 -34 -45 -1 -11 -18 51 -26 55 -6
81 2 122 40 26 23 47 57 35 55 -4 -1 -46 -16 -93 -35z"/>
<path d="M10426 2871 l-29 -6 42 -19 c39 -16 50 -17 122 -6 44 7 81 16 84 20
11 17 -153 26 -219 11z"/>
<path d="M7120 2857 c0 -9 11 -45 25 -80 l26 -64 322 -6 c195 -4 407 -14 537
-26 118 -12 271 -23 340 -25 69 -2 138 -9 154 -15 37 -15 45 -7 14 13 -31 20
-273 101 -378 125 -211 50 -475 79 -802 88 -217 6 -238 5 -238 -10z"/>
<path d="M11912 2853 c9 -10 20 -31 25 -47 7 -23 21 -33 72 -52 81 -30 90 -30
60 2 -55 59 -204 151 -157 97z"/>
<path d="M10835 2825 c-510 -51 -1019 -225 -1457 -498 -154 -97 -168 -114 -43
-56 459 213 1032 365 1545 410 179 16 433 7 580 -20 557 -103 849 -326 864
-659 2 -40 6 -75 8 -77 7 -8 69 107 88 166 35 103 19 226 -43 332 -36 60 -153
168 -230 211 -280 157 -839 238 -1312 191z"/>
<path d="M10232 2799 c-29 -5 -69 -16 -90 -25 l-37 -16 27 -8 c30 -9 211 38
202 52 -6 9 -30 9 -102 -3z"/>
<path d="M1707 2726 c-171 -114 -283 -206 -529 -434 -87 -80 -165 -161 -174
-180 -33 -71 -1 -102 139 -135 84 -19 120 -21 402 -22 300 0 748 26 768 44 4
4 5 15 2 23 -5 13 -61 15 -453 14 -431 -1 -648 10 -692 34 -25 14 22 18 275
24 277 6 796 44 811 59 6 6 -70 172 -83 180 -5 3 -67 -14 -139 -38 -211 -71
-415 -119 -664 -155 -156 -22 -220 -25 -220 -10 0 14 257 137 428 205 139 54
433 145 472 145 10 0 21 4 24 8 6 9 -102 152 -115 152 -36 0 -384 -199 -606
-347 -95 -63 -178 -113 -184 -111 -29 10 312 289 543 444 87 59 158 109 158
111 0 15 -35 53 -49 53 -9 0 -61 -29 -114 -64z"/>
<path d="M12186 2725 c4 -28 7 -51 8 -51 12 -16 122 -90 124 -84 5 14 -61 110
-102 150 l-36 34 6 -49z"/>
<path d="M9915 2680 c-17 -7 -16 -9 10 -9 17 0 39 4 50 9 17 7 16 9 -10 9 -16
0 -39 -4 -50 -9z"/>
<path d="M1950 2415 c-199 -53 -568 -192 -604 -226 -42 -39 410 56 656 137 76
26 138 50 138 56 0 22 -32 68 -48 67 -9 0 -73 -16 -142 -34z"/>
<path d="M7403 2281 c-28 -3 -55 -9 -58 -13 -8 -8 54 -101 63 -96 4 2 32 15
62 30 30 15 86 35 123 44 42 11 63 20 55 25 -20 11 -186 18 -245 10z"/>
<path d="M6588 2203 c-3 -4 4 -136 14 -293 19 -272 21 -286 43 -309 19 -19 35
-24 87 -26 119 -5 191 -53 274 -182 30 -45 61 -86 71 -91 10 -6 47 -17 82 -26
83 -21 111 -43 149 -113 l31 -58 118 -52 c322 -141 695 -235 1108 -278 385
-40 1051 -40 1457 0 144 15 457 61 466 69 6 7 -138 15 -363 21 -846 20 -1639
165 -2228 407 -294 120 -623 312 -857 498 -103 82 -327 298 -408 393 -22 26
-42 44 -44 40z"/>
<path d="M5165 2004 c-19 -30 -49 -78 -65 -107 -104 -185 -179 -492 -180 -736
0 -118 1 -120 194 -275 198 -159 217 -185 181 -240 -14 -22 -14 -24 2 -31 10
-3 50 -9 90 -12 71 -6 72 -6 79 21 3 15 -1 48 -11 79 -13 41 -32 66 -91 123
-57 55 -81 87 -111 150 -36 74 -38 84 -36 162 3 98 -7 124 -69 175 l-42 35 18
63 c38 139 140 315 255 441 l51 56 -20 25 c-27 34 -166 127 -191 127 -11 0
-31 -20 -54 -56z"/>
<path d="M7618 2030 c-38 -3 -70 -9 -73 -12 -6 -6 76 -78 133 -117 l34 -23 31
29 c53 50 98 76 177 105 l75 27 -155 -1 c-85 0 -185 -4 -222 -8z"/>
<path d="M5396 1809 c-99 -107 -175 -235 -223 -374 l-23 -69 44 -46 c58 -58
67 -84 64 -183 -3 -111 27 -174 130 -276 78 -78 108 -129 119 -206 6 -46 6
-47 37 -41 36 7 141 76 141 92 0 6 -20 27 -44 45 -61 47 -89 105 -101 213 -13
107 -26 142 -80 200 l-42 45 28 12 c158 65 252 128 319 216 l35 46 -19 31
c-35 57 -63 117 -90 188 -26 70 -26 71 -73 83 -26 6 -72 28 -103 48 -30 21
-57 37 -59 37 -2 0 -29 -27 -60 -61z"/>
<path d="M7870 1780 c31 -23 324 -180 337 -180 6 0 14 11 17 25 9 36 63 93
126 134 l55 36 -278 1 c-257 0 -277 -1 -257 -16z"/>
<path d="M12076 1711 c-27 -45 -47 -83 -44 -86 7 -7 98 53 103 67 3 7 2 33 -2
56 l-8 44 -49 -81z"/>
<path d="M3242 1693 c-9 -16 -122 -114 -154 -134 -21 -13 9 -53 83 -109 132
-100 179 -174 165 -259 -8 -50 -75 -129 -229 -272 -251 -231 -518 -449 -687
-560 l-24 -16 54 -31 c30 -18 65 -32 76 -32 40 0 93 30 126 71 35 45 185 163
308 243 95 61 242 208 307 306 99 149 207 344 207 375 0 37 -23 70 -81 115
-59 45 -66 60 -73 165 -7 95 -24 148 -52 153 -9 2 -21 -5 -26 -15z"/>
<path d="M11884 1629 c-46 -36 -128 -133 -116 -137 5 -1 41 12 81 31 l73 33 2
52 c1 29 1 52 0 52 -1 0 -19 -14 -40 -31z"/>
<path d="M11457 1458 c-75 -61 -136 -113 -134 -115 2 -2 55 11 118 29 l114 33
6 41 c4 22 15 58 23 79 9 21 15 39 14 41 -2 1 -65 -47 -141 -108z"/>
<path d="M8760 1549 c-52 -5 -174 -6 -270 -3 -164 4 -173 4 -147 -11 34 -19
298 -133 380 -163 l57 -22 0 41 c0 52 20 89 72 133 33 27 38 35 23 34 -11 0
-63 -5 -115 -9z"/>
<path d="M2783 1508 c2 -7 19 -50 37 -95 39 -101 105 -179 186 -219 48 -23 63
-26 114 -21 49 6 60 4 60 -8 0 -8 -11 -22 -25 -31 -25 -16 -71 -16 -177 2 -33
5 -41 2 -82 -36 -25 -23 -59 -67 -77 -98 -62 -111 -189 -289 -290 -406 -100
-116 -147 -156 -181 -156 -23 0 -23 -12 0 -40 22 -28 26 -26 162 71 242 173
677 558 761 673 55 74 28 154 -79 237 -37 29 -88 72 -113 96 l-46 44 -61 -20
c-78 -27 -124 -27 -147 -1 -20 22 -50 27 -42 8z"/>
<path d="M6644 1508 c-14 -6 -33 -39 -53 -90 -17 -45 -30 -83 -27 -85 2 -3 37
-11 78 -20 40 -8 100 -24 133 -35 139 -46 384 -179 407 -221 27 -49 11 -260
-28 -362 -9 -22 18 -19 50 6 38 30 73 105 81 174 4 33 11 79 16 103 8 37 5 52
-22 117 -38 91 -67 118 -149 134 -75 15 -108 43 -182 155 -67 101 -125 136
-222 135 -33 0 -71 -5 -82 -11z"/>
<path d="M3811 1480 c-25 -16 -66 -39 -93 -51 -43 -20 -48 -26 -48 -56 0 -48
33 -139 95 -264 75 -148 98 -229 132 -468 l4 -33 59 4 c33 2 62 7 65 9 6 6
-17 177 -39 289 -17 87 -39 239 -62 430 -16 130 -30 171 -58 169 -6 0 -31 -13
-55 -29z"/>
<path d="M11079 1394 c-68 -47 -135 -97 -149 -111 l-25 -24 45 7 c25 4 74 12
110 18 l64 11 17 46 c9 25 30 67 48 92 18 26 28 47 23 47 -6 0 -65 -39 -133
-86z"/>
<path d="M9120 1375 c-80 -19 -162 -37 -182 -41 -71 -12 -51 -23 112 -60 59
-13 75 -14 78 -4 9 27 69 81 122 110 70 38 51 37 -130 -5z"/>
<path d="M10788 1370 c-14 -11 -77 -49 -140 -85 -123 -71 -123 -72 26 -54 139
16 133 13 128 52 -2 18 3 50 12 70 17 42 12 45 -26 17z"/>
<path d="M3555 1360 c-32 -11 -49 -22 -46 -31 2 -8 4 -38 3 -68 0 -50 3 -59
54 -126 126 -167 184 -302 188 -440 l3 -80 41 -6 c23 -3 46 -3 52 1 7 4 7 32
0 84 -19 149 -48 246 -121 398 -38 80 -78 178 -87 217 -9 39 -21 71 -27 70 -5
0 -32 -9 -60 -19z"/>
<path d="M5990 1351 c0 -21 139 -134 204 -166 112 -55 182 -69 476 -95 149
-14 212 -26 262 -51 39 -20 43 -27 52 -104 16 -123 44 -202 86 -240 28 -25 35
-14 49 82 14 94 14 153 0 209 -10 37 -22 54 -62 86 -147 116 -400 195 -807
253 -278 40 -260 38 -260 26z"/>
<path d="M9610 1344 c-109 -29 -320 -98 -320 -104 0 -9 53 -18 156 -26 l81 -7
54 55 c30 30 68 64 84 76 35 25 22 26 -55 6z"/>
<path d="M9975 1344 c-93 -49 -245 -139 -245 -146 0 -4 57 -8 126 -8 116 0
126 1 118 18 -14 31 -7 71 20 112 29 44 26 47 -19 24z"/>
<path d="M10320 1301 c-147 -58 -230 -97 -230 -107 0 -6 244 4 298 12 29 4 32
8 32 38 0 21 11 48 30 74 17 23 27 42 23 41 -5 0 -73 -26 -153 -58z"/>
<path d="M6886 841 c-28 -28 -41 -53 -46 -83 -5 -24 -13 -69 -20 -100 -14 -62
-6 -113 11 -70 5 12 24 31 43 43 35 21 46 40 65 125 12 49 7 124 -8 124 -4 0
-24 -18 -45 -39z"/>
<path d="M6950 624 c-38 -88 -103 -179 -156 -219 -33 -25 -40 -27 -72 -17 -42
13 -52 9 -117 -55 -28 -27 -64 -60 -80 -73 -47 -39 -75 -80 -75 -111 0 -16 3
-29 6 -29 3 0 25 16 47 36 35 29 47 34 72 29 84 -18 102 -18 124 4 11 11 21
33 21 47 0 31 17 54 95 124 72 65 134 142 181 227 35 62 35 63 17 87 -10 14
-21 26 -24 26 -3 0 -20 -34 -39 -76z"/>
<path d="M7244 669 c-28 -30 -29 -31 -26 -137 4 -110 -9 -195 -33 -222 -17
-19 -65 -138 -65 -161 0 -23 29 -39 69 -39 33 0 40 -15 21 -51 -16 -30 11 -24
42 9 35 37 46 61 68 148 18 70 18 78 4 117 -9 23 -17 69 -18 102 -4 109 -19
256 -26 260 -4 2 -20 -9 -36 -26z"/>
<path d="M5685 651 c-15 -17 -60 -46 -100 -66 -40 -20 -94 -55 -119 -79 -39
-36 -46 -48 -46 -80 0 -20 -9 -54 -20 -76 -24 -47 -25 -62 -4 -102 l16 -32 13
30 c7 16 22 38 35 49 27 25 50 67 50 95 0 13 12 27 31 38 66 37 165 120 181
153 21 41 24 99 5 99 -7 0 -26 -13 -42 -29z"/>
<path d="M7016 517 c-70 -125 -128 -197 -160 -197 -51 0 -105 -101 -113 -216
-6 -79 3 -93 27 -41 14 30 19 32 95 44 71 11 84 16 112 46 25 28 33 47 38 93
11 97 24 145 65 239 50 118 52 129 19 133 -22 3 -31 -8 -83 -101z"/>
<path d="M7149 550 c-15 -41 -38 -103 -53 -138 -15 -34 -30 -86 -33 -114 -6
-50 -6 -51 18 -45 13 4 27 7 32 7 4 0 7 7 7 14 0 8 11 36 24 61 30 56 38 105
34 210 l-3 80 -26 -75z"/>
<path d="M5175 555 c-82 -47 -198 -91 -276 -105 -68 -12 -132 -5 -196 21 -31
13 -33 12 -85 -37 -29 -28 -83 -65 -119 -82 -67 -32 -139 -98 -139 -128 0 -11
10 -8 43 14 23 16 89 52 147 81 58 28 125 62 149 76 51 29 85 31 130 9 55 -28
212 4 326 65 39 21 96 49 128 61 31 13 57 27 57 31 0 3 -13 9 -29 12 -16 3
-39 8 -52 11 -16 3 -44 -7 -84 -29z"/>
<path d="M3955 571 l-50 -6 -35 -72 c-19 -39 -39 -75 -43 -80 -5 -4 -34 -8
-64 -8 -55 0 -57 -1 -88 -45 -21 -29 -54 -58 -95 -81 -88 -50 -123 -103 -51
-78 24 9 39 9 57 0 34 -15 107 -14 179 4 33 8 83 14 111 15 54 0 93 21 115 62
10 19 26 124 36 241 4 44 2 57 -9 55 -7 0 -35 -4 -63 -7z"/>
<path d="M3707 526 c-20 -24 -68 -65 -108 -92 -70 -48 -72 -49 -143 -47 -141
4 -222 9 -233 16 -6 4 -32 -9 -58 -28 -25 -20 -70 -46 -98 -59 -29 -13 -65
-37 -81 -55 l-30 -31 27 0 c17 0 39 13 64 39 67 67 90 74 268 82 176 8 309 31
340 59 31 27 61 40 95 40 22 0 39 9 61 32 56 62 48 88 -27 88 -37 0 -46 -5
-77 -44z"/>
<path d="M5312 500 c-51 -22 -118 -53 -148 -71 -62 -35 -167 -65 -260 -75 -49
-5 -67 -3 -85 10 -13 9 -34 16 -47 16 -24 0 -182 -84 -257 -137 l-40 -28 30
-5 c17 -3 43 -14 60 -25 40 -27 144 -28 203 -1 36 17 49 18 95 8 66 -13 280
-15 329 -1 27 7 50 26 90 75 88 108 95 120 101 175 4 34 14 60 28 76 32 33 11
29 -99 -17z"/>
<path d="M1804 407 c-28 -24 -56 -36 -101 -44 -73 -14 -106 -33 -144 -87 -61
-83 -14 -78 71 7 34 33 60 49 105 62 33 9 74 28 92 41 39 30 53 30 89 2 28
-22 35 -23 209 -20 99 2 181 5 183 7 1 1 -3 14 -9 29 -15 31 -31 32 -107 7
-78 -27 -231 -22 -288 8 -50 27 -53 27 -100 -12z"/>
<path d="M1851 346 c-13 -13 -39 -27 -59 -31 -55 -10 -132 -45 -142 -66 -14
-25 -13 -28 9 -22 11 3 32 -4 48 -16 39 -28 195 -41 239 -19 22 12 75 16 234
17 257 3 340 20 271 56 -17 8 -47 27 -68 41 l-38 25 -205 -3 c-198 -3 -206 -2
-236 19 l-31 22 -22 -23z"/>
<path d="M3520 329 c-19 -5 -107 -13 -195 -17 -96 -5 -170 -14 -185 -21 -30
-16 -70 -51 -70 -62 0 -15 39 -20 61 -9 17 9 27 9 47 -1 28 -16 155 -19 215
-6 20 4 53 22 72 38 19 17 58 43 87 59 42 23 48 29 28 29 -14 -1 -41 -5 -60
-10z"/>
</g>
</svg>
