<?xml version="1.0" standalone="no"?>
<!DOCTYPE svg PUBLIC "-//W3C//DTD SVG 20010904//EN"
 "http://www.w3.org/TR/2001/REC-SVG-20010904/DTD/svg10.dtd">
<svg version="1.0" xmlns="http://www.w3.org/2000/svg"
 width="1080.000000pt" height="1080.000000pt" viewBox="0 0 1080.000000 1080.000000"
 preserveAspectRatio="xMidYMid meet">
<metadata>
Created by potrace 1.16, written by Peter Selinger 2001-2019
</metadata>
<g transform="translate(0.000000,1080.000000) scale(0.100000,-0.100000)"
fill="#000000" stroke="none">
<path d="M5710 10490 c-25 -4 -112 -12 -195 -19 -82 -6 -208 -18 -280 -26 -71
-9 -142 -15 -157 -15 -56 0 -287 -105 -323 -147 -5 -6 -30 -22 -55 -34 -25
-12 -65 -36 -89 -53 -25 -17 -62 -40 -82 -51 -56 -30 -183 -157 -232 -233 -24
-37 -51 -73 -61 -81 -27 -22 -60 -95 -95 -211 -18 -58 -46 -143 -61 -190 -43
-126 -67 -235 -75 -330 -10 -134 -31 -246 -78 -438 -49 -193 -93 -394 -102
-457 -3 -22 -2 -92 3 -155 l8 -115 23 90 c13 50 28 113 33 140 6 28 14 57 19
67 4 9 6 33 3 55 -5 30 -3 35 6 23 9 -12 10 -11 5 7 -3 12 -1 39 6 60 6 21 15
61 19 88 9 58 41 168 50 175 4 3 11 16 15 30 13 48 67 185 75 194 5 5 6 15 3
22 -3 8 0 14 5 14 10 0 22 17 54 80 7 14 15 27 18 30 3 3 14 22 25 42 51 93
102 168 128 185 15 10 30 26 33 36 3 9 14 17 25 17 10 0 19 6 19 14 0 8 8 17
19 21 10 3 26 14 36 25 9 10 22 17 28 16 7 -2 9 -1 5 1 -21 12 -4 23 25 18 25
-5 37 -2 51 14 12 13 31 21 53 21 18 0 33 4 33 9 0 15 45 18 59 4 17 -18 27
-10 35 28 l6 31 77 -3 c43 -2 84 0 90 4 7 4 22 3 34 -4 12 -6 63 -13 113 -16
119 -6 130 -6 201 1 128 13 180 13 212 -1 25 -10 39 -11 54 -3 23 13 67 10 87
-5 7 -5 22 -18 33 -27 10 -10 25 -18 33 -18 8 0 16 -6 19 -12 3 -10 7 -10 19
0 19 15 118 -2 118 -21 1 -7 6 -2 13 10 9 16 16 20 27 13 9 -5 19 -5 27 2 9 7
13 7 13 -1 0 -6 11 -8 30 -4 25 5 29 3 24 -11 -8 -21 19 -22 36 -1 15 18 37
20 42 3 3 -7 19 -11 39 -10 24 2 42 -5 63 -23 16 -14 35 -25 41 -25 7 0 23 -8
36 -18 13 -10 44 -24 69 -32 25 -8 53 -24 63 -37 10 -12 27 -25 38 -28 11 -4
32 -25 46 -48 20 -31 28 -38 31 -24 4 19 27 23 38 5 4 -6 -1 -17 -11 -25 -18
-12 -18 -13 3 -13 17 0 21 -7 24 -41 3 -46 31 -76 47 -50 7 10 18 4 50 -27 41
-40 91 -106 91 -120 0 -4 31 -39 70 -77 38 -39 69 -76 67 -84 -1 -8 4 -16 12
-19 9 -3 11 0 6 9 -5 8 14 -6 42 -31 59 -53 123 -145 123 -177 0 -16 6 -23 19
-23 10 0 21 -7 25 -15 3 -8 12 -15 21 -15 8 0 15 -4 15 -10 0 -5 19 -10 41
-10 36 0 41 -2 36 -20 -3 -10 0 -21 5 -22 14 -5 38 -77 38 -117 0 -41 20 -111
32 -111 4 0 8 -10 8 -23 0 -13 5 -28 11 -34 6 -6 12 -45 14 -88 2 -42 8 -82
14 -88 6 -8 6 -18 1 -27 -13 -20 -13 -60 0 -60 6 0 10 -11 10 -25 0 -14 9 -34
19 -44 35 -35 44 -65 45 -145 l1 -78 33 108 c18 60 39 125 47 144 61 155 76
299 59 580 -9 138 -17 201 -32 246 -29 85 -39 159 -30 229 5 33 5 148 2 255
-7 220 -24 296 -90 395 -19 29 -41 79 -50 111 -20 78 -44 131 -85 186 -19 25
-53 72 -77 104 -23 32 -59 77 -78 99 -20 22 -47 56 -59 75 -56 86 -131 155
-217 197 -47 23 -107 48 -134 56 -27 8 -78 26 -114 41 -35 14 -91 31 -125 36
-33 5 -95 21 -138 35 -128 40 -237 55 -402 54 -82 -1 -170 -5 -195 -9z"/>
<path d="M8350 8783 c0 -5 14 -17 31 -27 24 -14 28 -21 18 -28 -11 -7 -9 -8 6
-6 16 2 19 -2 17 -22 -1 -19 0 -22 8 -10 7 12 12 12 22 2 10 -10 10 -15 -2
-23 -12 -8 -11 -9 5 -5 25 7 121 -77 109 -95 -4 -8 -3 -9 4 -5 7 4 27 -8 46
-28 27 -27 34 -40 30 -61 -3 -18 -1 -24 6 -20 6 4 9 13 6 21 -8 22 0 16 19
-13 17 -25 17 -26 0 -19 -16 6 -16 4 -4 -10 7 -9 15 -12 17 -6 2 6 10 8 18 5
12 -4 12 -8 -3 -19 -10 -7 -13 -14 -7 -14 5 0 15 5 21 11 8 8 13 8 17 0 4 -6
3 -11 -3 -11 -16 0 4 -45 20 -46 39 -4 42 -6 14 -15 -19 -5 -31 -5 -33 1 -2 6
-10 6 -21 0 -10 -5 -22 -6 -26 -2 -5 4 -5 2 -2 -4 4 -6 31 -9 67 -8 42 2 58 0
54 -8 -4 -6 -3 -8 3 -5 5 3 17 -7 27 -24 20 -34 12 -39 -13 -8 l-17 21 0 -21
c0 -15 10 -24 33 -32 18 -6 33 -15 33 -20 0 -12 -7 -11 -33 5 -12 8 -33 12
-47 11 -14 -2 -53 -4 -87 -4 l-63 -1 0 -40 0 -40 -40 0 -40 0 0 -40 0 -40 -80
0 -80 0 0 -40 0 -40 -80 0 -80 0 0 -40 0 -40 -80 0 c-47 0 -80 4 -80 10 0 6
-7 10 -15 10 -11 0 -15 -12 -15 -50 0 -38 4 -50 15 -50 11 0 15 -11 15 -40 l0
-40 -40 0 c-22 0 -40 -4 -40 -10 0 -5 -9 -19 -21 -31 -14 -14 -19 -29 -15 -51
3 -23 -1 -36 -18 -53 -46 -46 -54 -179 -16 -260 21 -44 24 -65 24 -177 1 -84
-3 -131 -11 -139 -6 -6 -9 -18 -6 -25 3 -8 1 -14 -5 -14 -5 0 -13 -7 -16 -16
-3 -8 -2 -12 4 -9 14 9 12 -5 -5 -39 -8 -16 -17 -42 -20 -58 -3 -16 -10 -37
-15 -46 -19 -34 -67 -168 -80 -220 -6 -28 -16 -55 -21 -58 -5 -3 -7 -10 -4
-15 4 -5 2 -9 -3 -9 -5 0 -12 -24 -16 -52 -4 -29 -9 -64 -11 -78 -2 -14 -9
-56 -15 -95 -16 -102 -28 -207 -34 -314 -4 -51 -11 -101 -16 -111 -5 -10 -14
-48 -19 -86 -9 -68 -51 -230 -70 -269 -5 -11 -19 -49 -32 -85 -12 -36 -26 -69
-31 -75 -14 -16 -9 -35 27 -90 50 -79 191 -215 222 -215 5 0 18 -8 29 -18 10
-10 40 -28 67 -40 26 -12 47 -27 47 -32 0 -6 10 -10 23 -10 13 0 28 -5 33 -10
6 -6 19 -13 30 -15 10 -3 62 -16 114 -30 108 -28 125 -31 235 -50 117 -19 240
-67 350 -136 22 -13 49 -30 60 -37 11 -7 32 -17 48 -23 15 -6 27 -15 27 -19 0
-5 10 -11 23 -15 59 -16 164 -48 182 -55 53 -20 274 -76 430 -110 71 -15 212
-82 257 -121 35 -32 44 -31 51 8 2 16 18 97 35 181 32 157 65 379 61 416 -1
12 2 30 7 41 12 26 12 804 0 830 -5 11 -8 28 -7 38 9 73 -99 653 -141 757 -6
14 -12 32 -14 40 -9 50 -46 166 -73 235 -18 44 -34 85 -35 90 -9 43 -22 74
-97 240 -12 28 -23 52 -23 55 -3 12 -93 191 -127 252 -20 36 -35 69 -31 72 3
3 1 6 -5 6 -5 0 -15 12 -21 26 -7 15 -17 22 -24 18 -7 -4 -8 -3 -4 4 8 14 -54
123 -66 116 -4 -3 -5 3 -1 12 5 13 3 15 -7 9 -8 -5 -11 -4 -7 2 11 18 -166
273 -189 273 -8 0 -14 5 -14 11 0 5 5 7 12 3 6 -4 -17 30 -51 75 -35 45 -65
80 -69 77 -3 -3 2 -14 10 -23 28 -33 32 -49 8 -28 -21 18 -23 18 -17 2 4 -10
3 -16 -2 -13 -4 3 -8 22 -7 43 1 24 -6 47 -19 62 -77 95 -208 236 -324 349
-135 133 -191 181 -191 165z"/>
<path d="M6750 7814 c-7 -7 -9 -18 -6 -23 4 -6 4 -22 0 -36 -5 -20 -11 -25
-26 -21 -11 2 -28 1 -37 -4 -9 -4 -29 -13 -44 -19 -15 -6 -25 -16 -22 -21 3
-6 0 -10 -9 -10 -8 0 -16 6 -18 12 -3 7 -18 11 -35 10 -31 -2 -131 41 -145 62
-6 8 -8 8 -8 0 0 -7 -15 -8 -47 -3 -75 12 -110 10 -127 -7 -9 -8 -20 -13 -25
-9 -6 3 -18 -7 -28 -22 -31 -48 -74 -80 -93 -68 -15 9 -21 -12 -6 -24 10 -8
16 -9 21 -1 3 5 13 10 22 10 14 0 13 -3 -3 -21 l-18 -21 48 6 c26 3 52 9 58
12 5 4 34 8 63 10 44 2 55 0 58 -14 4 -15 5 -15 6 1 1 20 36 23 48 3 12 -20
68 -46 101 -46 16 0 44 -8 63 -17 23 -11 62 -17 123 -18 55 -1 82 1 71 6 -16
7 -14 8 10 8 48 -2 52 0 50 24 -2 21 -12 27 -72 43 -7 2 -13 7 -13 12 0 8 142
-20 180 -35 8 -3 25 -5 37 -4 12 1 30 -2 40 -8 62 -33 55 68 -8 129 -23 22
-48 40 -56 40 -7 0 -16 6 -19 14 -3 7 -23 19 -45 26 -21 7 -39 16 -39 20 0 15
-39 18 -50 4z"/>
<path d="M4815 7581 c-3 -6 11 -13 30 -17 25 -4 35 -11 31 -20 -4 -10 2 -14
19 -14 15 0 25 -6 25 -15 0 -12 -11 -14 -62 -8 -59 6 -107 8 -169 4 -23 -1
-28 -6 -33 -41 -3 -22 -9 -57 -12 -77 -5 -33 -1 -43 28 -76 31 -36 37 -38 106
-44 59 -5 79 -3 106 12 38 21 66 70 66 118 0 28 4 33 26 35 26 2 26 1 22 -50
-4 -36 -1 -59 9 -74 19 -30 61 -39 84 -19 10 10 22 14 27 11 6 -3 12 1 16 9 4
11 -2 15 -24 15 -36 0 -38 14 -6 43 14 13 28 36 32 51 6 25 2 33 -32 62 -21
19 -44 34 -51 34 -7 0 -13 4 -13 8 0 15 -68 41 -122 47 -29 4 -63 8 -75 11
-12 2 -24 0 -28 -5z"/>
<path d="M5904 7490 c-25 -10 -64 -84 -64 -121 0 -13 -9 -33 -21 -42 -15 -13
-19 -25 -15 -42 7 -29 -9 -70 -42 -106 l-24 -27 23 -21 c18 -17 20 -23 9 -36
-11 -13 -10 -25 6 -73 10 -31 24 -62 29 -68 6 -6 17 -21 25 -33 8 -11 20 -21
26 -21 15 0 64 -64 64 -84 0 -11 9 -16 30 -16 28 0 44 19 18 21 -23 2 36 17
70 18 35 1 77 31 54 39 -21 7 -13 18 24 31 34 12 35 14 19 31 -10 11 -27 21
-39 23 -11 2 6 2 40 -1 35 -2 69 0 82 7 15 8 22 8 26 -2 3 -6 3 -2 0 11 -6 25
13 30 46 12 26 -14 135 -1 121 13 -20 20 -12 23 65 24 42 0 79 5 83 9 3 5 33
10 66 12 l60 2 11 -34 c6 -20 7 -39 3 -43 -5 -5 -4 -14 0 -22 10 -16 52 -8 75
14 8 8 19 15 25 15 20 0 12 51 -8 57 -25 6 -45 46 -36 73 6 20 8 20 24 6 15
-13 22 -14 44 -3 36 17 41 45 14 84 -12 18 -25 33 -29 33 -5 0 -8 5 -8 11 0
14 -26 40 -33 33 -3 -3 -8 3 -11 14 -7 22 -65 71 -116 97 -46 24 -135 44 -250
56 -52 6 -117 13 -144 16 -26 3 -58 0 -70 -5 -22 -11 -64 -21 -106 -26 -14 -2
-24 -8 -23 -14 1 -5 -3 -9 -10 -8 -7 0 -13 -3 -14 -8 -1 -5 -14 -17 -30 -28
-15 -11 -20 -18 -10 -14 9 3 17 3 17 1 0 -11 -53 -55 -65 -55 -19 0 -19 5 1
35 9 14 12 25 7 25 -10 0 -4 56 12 113 6 22 4 27 -11 26 -11 0 -29 -4 -40 -9z
m316 -172 c0 -7 -7 -22 -15 -32 -19 -25 -19 -77 0 -123 19 -44 19 -43 -2 -43
-15 0 -13 -4 7 -19 20 -16 22 -22 12 -34 -7 -9 -21 -13 -33 -10 -14 4 -20 1
-19 -8 4 -27 0 -39 -14 -39 -8 0 -16 7 -20 15 -3 10 1 15 12 15 14 0 15 2 2
10 -9 6 -18 6 -24 0 -15 -15 -23 -12 -30 13 -5 18 -8 19 -16 7 -8 -13 -11 -12
-24 5 -11 16 -16 17 -29 6 -13 -10 -19 -9 -34 7 -18 19 -43 57 -43 67 0 3 14
5 30 5 17 0 30 -5 30 -11 0 -6 6 -9 13 -6 6 2 23 0 37 -6 14 -5 35 -11 46 -12
21 -3 21 -2 7 26 -13 27 -24 34 -46 30 -5 -1 -11 8 -14 19 -3 13 -11 19 -19
16 -8 -3 -14 -1 -14 5 0 13 29 43 36 36 3 -3 16 6 30 20 43 42 134 71 134 41z
m320 -45 c78 -52 99 -96 61 -130 -51 -47 -68 -54 -141 -59 l-55 -4 33 30 33
31 -20 25 c-23 29 -18 52 12 56 23 3 29 22 15 51 -7 14 -4 17 14 17 13 0 35
-7 48 -17z"/>
<path d="M7360 7150 c0 -71 2 -130 5 -130 14 0 68 58 91 98 25 43 26 46 10 78
-10 21 -28 39 -51 48 -19 8 -35 20 -35 25 0 6 -4 11 -10 11 -6 0 -10 -50 -10
-130z"/>
<path d="M7450 7080 c0 -18 -71 -89 -84 -84 -10 4 -15 -19 -19 -93 -4 -54 -7
-118 -6 -143 l0 -45 26 65 c31 80 88 245 97 283 4 16 2 27 -4 27 -5 0 -10 -4
-10 -10z"/>
<path d="M5788 6533 c-54 -9 -59 -52 -14 -105 22 -25 58 -38 116 -41 41 -3 75
-41 79 -90 1 -5 11 -7 24 -5 21 3 22 0 23 -64 1 -63 -7 -86 -19 -55 -4 9 -6 9
-6 -1 -1 -7 -6 -10 -13 -6 -7 4 -8 3 -4 -5 9 -14 -11 -41 -31 -41 -8 0 -21 -7
-30 -15 -11 -12 -28 -14 -64 -10 -56 6 -112 -12 -128 -43 -15 -29 -14 -31 17
-31 15 0 42 -1 61 -1 27 -1 42 6 63 29 22 23 38 31 65 31 23 0 51 11 80 30 24
17 54 30 66 31 13 0 35 16 55 41 25 31 32 50 32 84 0 54 -37 134 -62 134 -17
0 -24 24 -19 65 0 6 -20 15 -46 21 -44 10 -48 10 -68 -14 l-21 -24 -40 40
c-40 42 -68 53 -116 45z"/>
<path d="M5693 6234 c-40 -20 -67 -50 -58 -63 3 -6 33 -11 66 -11 56 0 59 -1
59 -25 0 -20 5 -25 25 -25 15 0 25 6 25 14 0 8 7 16 15 20 21 8 19 60 -4 80
-28 25 -89 30 -128 10z"/>
<path d="M5779 5958 c-1 -7 -1 -26 0 -42 1 -16 -6 -40 -14 -52 -9 -13 -11 -24
-5 -24 5 0 10 -7 10 -15 0 -8 -9 -15 -19 -15 -30 0 -34 -17 -9 -34 30 -21 48
-20 48 3 0 52 54 24 64 -33 5 -27 12 -34 44 -42 27 -7 36 -14 34 -27 -3 -20
41 -41 69 -32 18 6 79 -22 79 -36 0 -3 16 -6 35 -7 20 -1 43 -8 51 -17 23 -22
34 -18 34 11 0 17 6 28 20 31 36 10 23 33 -18 33 -31 0 -41 5 -50 24 -7 15
-21 25 -41 28 -17 3 -31 1 -31 -4 0 -19 -21 -6 -35 22 -9 17 -21 30 -28 30
-15 1 -77 56 -77 70 0 5 -7 10 -16 10 -8 0 -20 14 -25 30 -12 32 -44 41 -66
19 -6 -6 -16 -8 -22 -5 -16 10 -13 36 4 36 8 0 15 6 15 13 0 29 -48 52 -51 25z"/>
<path d="M3821 5530 c-1 -19 -8 -46 -16 -60 -8 -14 -18 -33 -21 -42 -3 -10
-13 -18 -20 -18 -19 0 -18 -15 2 -34 8 -9 12 -16 7 -16 -5 0 -14 5 -19 10 -13
13 -44 2 -44 -15 0 -8 -9 -16 -19 -20 -12 -4 -18 -12 -14 -21 3 -8 0 -21 -7
-29 -7 -8 -9 -15 -4 -15 4 0 3 -5 -4 -12 -7 -7 -12 -20 -12 -30 0 -13 -8 -18
-26 -18 -21 0 -24 4 -19 20 4 12 2 20 -5 20 -6 0 -8 -5 -4 -11 4 -7 1 -10 -7
-7 -12 5 -64 -17 -79 -32 -5 -6 -50 -26 -62 -29 -9 -1 -53 -26 -148 -81 -75
-44 -158 -78 -280 -115 -47 -14 -119 -43 -160 -65 -147 -79 -300 -151 -347
-165 -27 -7 -82 -19 -123 -25 -41 -6 -129 -29 -195 -50 -66 -21 -169 -45 -230
-54 -117 -17 -142 -23 -330 -81 -109 -33 -136 -37 -300 -46 -192 -10 -320 -31
-329 -55 -8 -21 108 -455 135 -505 5 -10 26 -65 45 -121 20 -57 46 -125 59
-153 12 -27 35 -79 51 -115 37 -86 174 -354 184 -360 4 -3 18 -25 30 -50 13
-25 34 -58 47 -74 14 -17 29 -39 34 -50 19 -43 170 -263 212 -310 15 -17 27
-36 27 -43 0 -7 4 -13 8 -13 5 0 24 -21 43 -47 18 -27 47 -62 64 -79 16 -16
41 -45 55 -63 62 -83 251 -277 373 -384 26 -23 55 -50 65 -61 26 -28 211 -176
220 -176 4 0 22 -13 39 -29 17 -15 46 -38 65 -49 18 -12 47 -33 63 -48 17 -14
46 -34 66 -45 21 -10 43 -24 50 -32 19 -19 118 -81 186 -117 32 -17 90 -49
128 -71 77 -44 332 -169 345 -169 5 0 31 -11 58 -25 28 -14 55 -25 61 -25 6 0
19 -5 29 -10 9 -6 55 -24 102 -41 526 -188 992 -269 1550 -269 391 0 674 32
1060 121 176 40 569 166 594 190 6 5 16 9 24 9 7 0 39 12 70 26 31 14 88 40
127 58 102 45 318 155 335 171 8 7 40 25 70 40 30 15 57 30 60 34 3 3 22 15
43 26 21 11 47 28 57 38 11 9 39 30 64 45 24 15 69 46 99 70 31 23 60 42 64
42 4 0 21 14 37 30 16 17 35 30 42 30 7 0 17 6 21 13 4 7 28 29 52 48 25 18
53 41 62 49 10 8 37 31 60 50 110 92 254 232 369 360 36 39 87 95 113 123 27
29 59 68 71 87 13 19 35 46 49 60 15 14 27 29 27 33 0 8 13 25 41 55 9 9 28
35 41 57 14 22 36 51 48 65 12 14 30 41 40 60 10 19 28 46 40 60 12 14 27 37
32 53 6 15 14 27 19 27 5 0 9 7 9 15 0 8 4 15 9 15 5 0 12 9 16 20 3 11 18 40
33 65 65 110 86 149 157 293 41 84 75 158 75 165 0 7 6 21 13 32 18 26 87 205
87 225 0 8 -19 31 -42 50 -23 19 -61 52 -83 72 -44 40 -81 52 -415 133 -372
91 -440 115 -545 194 -103 78 -153 99 -270 116 -61 9 -146 25 -190 37 -44 11
-116 28 -160 38 -96 22 -181 58 -246 105 -27 19 -97 59 -157 89 -129 64 -154
84 -207 162 -65 97 -137 184 -226 274 -69 70 -84 91 -90 125 l-6 40 -17 -37
c-9 -21 -21 -38 -26 -38 -6 0 -10 -6 -10 -13 0 -7 -13 -24 -30 -37 -16 -14
-29 -29 -30 -34 0 -13 -49 -56 -63 -56 -19 -1 -67 -47 -67 -65 0 -17 -16 -20
-25 -5 -11 17 -38 12 -31 -6 4 -11 -1 -18 -14 -21 -11 -3 -17 -9 -14 -14 5 -8
-9 -13 -28 -10 -5 0 -8 -5 -8 -13 0 -22 -19 -30 -43 -18 -12 6 -30 13 -40 16
-10 3 -16 10 -13 15 8 13 -19 33 -56 40 -28 6 -36 2 -65 -29 -24 -28 -31 -42
-26 -61 3 -13 10 -26 14 -29 4 -3 5 -24 2 -46 l-5 -41 -72 3 c-39 2 -85 -1
-103 -7 -26 -8 -31 -15 -31 -40 1 -16 5 -29 10 -29 5 0 7 -14 3 -30 -4 -18 -2
-36 4 -44 16 -19 -14 -29 -39 -14 -25 16 -37 4 -17 -17 20 -20 36 -19 72 5 41
27 165 28 172 1 4 -16 8 -17 41 -5 28 9 39 9 44 1 5 -8 8 -6 8 6 0 9 5 17 11
17 5 0 8 4 5 9 -7 12 40 54 53 47 5 -4 16 3 23 13 14 19 61 24 73 8 3 -4 2 -5
-1 -2 -4 2 -16 -12 -27 -32 -13 -25 -16 -38 -8 -41 6 -2 8 -8 5 -14 -4 -6 -10
-5 -15 3 -8 11 -11 11 -20 -4 -7 -12 -17 -16 -29 -12 -46 15 -85 -42 -47 -68
21 -14 21 -14 -14 -49 -19 -19 -49 -43 -66 -53 -32 -19 -51 -45 -33 -45 6 0
10 3 10 8 0 4 15 14 33 21 17 8 37 20 44 25 7 6 27 22 45 36 18 14 68 60 111
104 75 76 107 126 132 211 19 61 30 39 29 -55 0 -99 -51 -290 -76 -290 -5 0
-8 -6 -8 -14 0 -7 -13 -40 -30 -72 -16 -32 -30 -63 -30 -69 0 -5 -9 -21 -19
-34 -16 -21 -17 -27 -5 -39 11 -11 21 -11 49 -2 19 6 37 16 41 21 3 5 27 20
54 34 l48 24 17 -25 c17 -27 13 -59 -10 -68 -8 -3 -15 -15 -15 -26 0 -11 -11
-43 -25 -70 -14 -27 -25 -61 -25 -75 0 -14 -9 -36 -21 -48 -12 -12 -24 -29
-27 -39 -13 -32 -187 -204 -230 -227 -30 -16 -30 -51 1 -45 12 2 16 1 8 -2
-41 -19 -141 -114 -141 -135 0 -10 -5 -21 -10 -24 -6 -4 -2 -18 11 -36 l21
-29 -34 -14 c-18 -7 -41 -16 -50 -19 -10 -4 -18 -13 -18 -21 0 -16 -42 -46
-66 -46 -13 0 -15 -8 -12 -39 4 -44 -18 -67 -62 -63 -19 2 -29 -5 -42 -28 -22
-39 -22 -54 -3 -70 9 -7 15 -8 15 -2 0 5 14 12 31 14 27 4 30 2 25 -16 -3 -12
-6 -24 -6 -28 0 -19 -20 -6 -20 13 0 11 -5 17 -10 14 -6 -4 -10 -12 -9 -18 4
-32 -1 -40 -16 -27 -13 11 -19 9 -38 -7 -23 -21 -56 -37 -70 -34 -4 0 -10 -6
-13 -14 -4 -8 -14 -15 -24 -15 -11 0 -22 -5 -26 -11 -4 -8 -9 -7 -15 2 -7 11
-9 11 -9 1 0 -7 -11 -17 -25 -22 -14 -5 -25 -15 -25 -21 0 -6 -6 -9 -14 -6 -8
3 -17 0 -19 -7 -3 -8 -22 -16 -41 -20 -20 -4 -36 -11 -36 -16 0 -5 -18 -19
-40 -30 -22 -11 -40 -18 -40 -14 0 3 -14 -6 -31 -20 -17 -14 -35 -24 -40 -20
-5 3 -9 0 -9 -5 0 -6 -6 -11 -13 -11 -7 0 -23 -10 -34 -22 -12 -13 -34 -33
-50 -46 -84 -68 -92 -72 -99 -60 -5 8 -10 6 -16 -8 -6 -13 -7 -10 -3 11 3 17
15 36 25 44 11 7 20 20 20 27 0 8 5 14 11 14 6 0 9 12 7 28 -3 26 -6 27 -63
29 -33 2 -68 3 -77 3 -10 1 -18 5 -18 11 0 5 -9 9 -20 9 -11 0 -23 6 -26 14
-3 8 -19 18 -35 21 -17 4 -35 15 -42 26 -6 10 -17 19 -24 19 -7 0 -13 4 -13
10 0 5 -18 19 -40 30 -22 11 -61 41 -87 65 -26 25 -67 57 -90 71 -24 14 -49
34 -56 45 -6 10 -17 19 -23 19 -7 0 -14 7 -18 15 -3 8 -12 15 -20 15 -8 0 -18
4 -21 10 -4 6 1 7 12 3 15 -6 16 -5 3 9 -14 15 -17 13 -34 -20 -11 -21 -21
-32 -23 -26 -8 23 -80 94 -95 94 -21 0 -43 28 -43 54 0 12 -11 26 -30 36 -16
8 -32 18 -35 21 -6 8 -47 29 -55 29 -3 0 -4 -9 0 -19 8 -25 -21 -54 -46 -46
-15 5 -19 1 -19 -17 0 -18 -2 -20 -10 -8 -9 13 -10 13 -11 0 -1 -8 -1 -19 0
-23 1 -5 -4 -5 -10 -2 -6 4 -9 16 -6 26 3 11 1 19 -4 19 -10 0 -12 -31 -3 -54
3 -8 12 -12 19 -10 15 6 29 -46 23 -86 -4 -30 -28 -39 -28 -11 0 30 -21 38
-38 13 -10 -16 -25 -22 -49 -22 -34 0 -35 -1 -29 -31 3 -17 6 -37 7 -43 0 -6
6 7 14 29 9 27 13 33 14 18 1 -12 3 -28 6 -35 4 -9 -4 -19 -20 -26 -33 -15
-38 -15 -29 1 5 9 4 9 -6 0 -21 -19 -4 -27 32 -17 27 8 34 16 39 44 l6 35 3
-35 c2 -19 4 -44 4 -54 1 -12 13 -23 31 -29 17 -5 37 -16 46 -23 12 -11 18
-11 28 -1 11 10 12 8 6 -11 -6 -20 -4 -23 12 -18 13 4 27 -2 43 -19 13 -14 27
-25 32 -25 16 0 78 -45 78 -56 0 -6 10 -18 21 -26 12 -8 20 -20 18 -27 -6 -16
-69 37 -69 57 0 7 -5 10 -11 7 -5 -4 -18 0 -27 8 -9 8 -27 18 -39 21 -13 4
-23 12 -23 18 0 5 -7 8 -15 4 -9 -3 -15 0 -15 10 0 8 -4 13 -9 10 -5 -3 -45
12 -89 34 -44 22 -85 40 -91 40 -6 0 -11 4 -11 8 0 4 -20 13 -44 20 -24 6 -51
18 -59 26 -8 8 -17 12 -21 9 -3 -4 -6 1 -6 10 0 10 6 16 13 15 7 -2 13 10 15
30 2 17 7 32 13 32 12 0 12 47 -1 55 -6 4 -8 11 -5 16 3 5 -1 6 -9 3 -12 -5
-16 1 -16 22 0 26 -1 26 -14 9 -12 -17 -13 -17 -20 8 -3 15 -11 27 -16 27 -6
0 -10 13 -10 29 0 40 -9 61 -27 61 -22 0 -44 26 -47 57 -2 16 -4 32 -5 36 0 5
-5 6 -11 2 -5 -3 -7 -12 -3 -20 3 -8 1 -15 -5 -15 -14 0 -22 24 -15 49 4 15 1
21 -11 21 -9 0 -19 6 -22 14 -6 17 -81 49 -94 41 -5 -3 -21 -3 -35 1 -29 7
-32 31 -10 73 8 16 17 48 21 72 l7 44 -23 -23 c-29 -31 -33 -24 -15 28 17 48
15 56 -19 62 -17 4 -23 1 -19 -9 3 -8 -3 -13 -17 -13 -16 0 -20 -4 -16 -16 4
-10 1 -14 -6 -12 -17 6 -51 -31 -46 -50 3 -12 -6 -22 -29 -33 -25 -13 -33 -13
-33 -4 0 8 4 15 8 17 12 5 52 65 52 78 0 6 7 18 15 26 8 9 15 24 15 35 0 10 5
19 11 19 5 0 7 5 4 10 -3 6 0 13 9 16 8 3 18 18 21 34 3 16 13 34 21 41 8 6
14 22 14 35 0 17 4 22 15 18 9 -4 15 0 15 8 0 7 14 19 30 25 17 6 30 16 30 22
0 17 -31 13 -52 -6 -25 -22 -36 -8 -13 17 11 12 31 20 52 20 32 0 33 -2 33
-38 0 -36 3 -40 48 -60 26 -11 60 -24 76 -28 26 -6 28 -5 21 17 -4 13 -12 27
-18 31 -7 4 -7 11 2 22 9 11 10 20 1 35 -6 12 -15 21 -20 21 -5 0 -3 18 5 40
8 22 10 40 5 40 -6 0 -10 9 -10 20 0 11 -7 23 -15 26 -8 4 -15 14 -15 23 0 9
-4 21 -9 26 -5 6 -16 45 -25 88 -10 42 -20 77 -22 77 -14 0 -35 -33 -42 -66
l-8 -38 -22 22 c-22 22 -23 29 -18 115 8 132 16 180 35 194 25 19 33 11 36
-34 5 -63 13 -80 41 -86 21 -4 25 -1 21 14 -3 12 2 20 14 24 15 5 18 12 13 33
-4 15 -10 32 -14 37 -18 26 -35 140 -35 235 0 119 17 207 45 238 11 12 20 26
20 31 0 21 -70 160 -87 173 -10 7 -19 20 -21 28 -2 8 -8 17 -13 18 -5 2 -9 20
-10 40 -1 21 -5 48 -9 62 -7 23 -8 22 -9 -10z m-339 -915 c14 0 23 -6 23 -15
0 -9 -9 -15 -24 -15 -13 0 -26 -6 -28 -12 -3 -7 2 -13 10 -13 8 0 17 -9 20
-21 3 -12 10 -18 16 -14 7 4 11 -8 12 -32 2 -48 16 -110 18 -75 1 29 27 39 49
20 9 -9 23 -13 31 -10 10 3 12 0 8 -12 -5 -12 -1 -16 17 -16 19 0 22 -4 19
-24 -5 -26 15 -46 27 -26 6 9 9 9 15 0 4 -6 -1 -17 -10 -24 -10 -7 -15 -19
-12 -27 4 -10 6 -9 6 4 2 40 19 12 24 -40 5 -45 3 -61 -8 -69 -20 -15 -19 -31
4 -44 17 -9 18 -14 9 -40 -7 -22 -16 -30 -35 -30 -14 0 -21 -4 -18 -10 3 -6
-7 -18 -24 -28 -17 -9 -31 -21 -31 -25 0 -5 -4 -5 -10 -2 -5 3 -10 2 -10 -4 0
-5 6 -11 13 -14 6 -2 0 -8 -15 -12 -15 -4 -35 -2 -48 5 -30 16 -35 9 -39 -57
-2 -31 -49 1 -55 37 -1 3 -10 5 -22 4 -16 -1 -20 4 -16 23 2 13 -1 23 -7 23
-6 0 -11 7 -11 16 0 8 -4 12 -10 9 -5 -3 -10 3 -10 14 0 12 -4 21 -8 21 -10 0
-9 41 1 58 6 8 0 12 -19 12 l-27 0 27 25 c14 13 26 31 26 39 0 8 6 17 13 19 7
3 4 6 -6 6 -17 1 -18 9 -11 99 3 53 10 101 14 106 5 5 4 17 -3 26 -8 14 -8 22
3 35 10 12 10 19 2 27 -24 24 -13 49 28 66 22 9 40 24 40 32 0 13 1 13 10 0 5
-8 20 -15 32 -15z m409 -1062 c0 -24 2 -26 12 -11 10 14 13 12 24 -20 7 -20
13 -47 13 -59 0 -12 6 -23 13 -26 9 -3 8 -9 -3 -23 -18 -22 -20 -56 -3 -61 7
-3 10 4 7 19 l-5 23 11 -23 c7 -16 7 -30 0 -42 -15 -27 -13 -47 2 -32 7 7 16
12 21 12 10 0 5 -65 -8 -94 -7 -16 -5 -18 14 -13 18 4 26 -1 39 -24 26 -45 47
-33 46 26 -1 28 1 45 3 38 2 -7 10 -10 17 -7 22 9 38 -20 26 -50 -5 -15 -14
-24 -20 -21 -6 4 -10 -5 -10 -19 0 -20 -5 -26 -21 -26 -16 0 -19 -4 -14 -20 3
-11 2 -20 -3 -20 -10 0 -22 22 -28 48 -5 27 -89 92 -117 92 -16 0 -34 55 -29
88 5 34 42 30 43 -5 0 -28 0 -28 10 -5 9 24 -7 52 -30 52 -6 0 -11 9 -11 20 0
10 -9 24 -19 30 -28 14 -31 13 -31 -14 0 -16 -7 -27 -20 -31 -43 -14 -52 -83
-9 -72 22 6 59 -19 59 -40 0 -16 1 -16 -51 3 -24 8 -71 21 -103 27 -33 7 -61
18 -64 25 -2 8 5 10 27 6 35 -7 39 4 16 40 -14 21 -14 24 1 30 8 3 20 4 25 0
5 -3 9 10 9 30 0 19 -6 36 -12 39 -9 3 -7 7 6 12 11 5 21 3 27 -6 5 -8 9 -11
9 -6 0 4 -6 16 -12 27 -11 17 -10 22 0 29 20 12 11 56 -11 55 -9 -1 -17 2 -17
7 0 5 7 9 16 9 18 0 44 -23 44 -39 0 -6 4 -11 10 -11 5 0 7 -6 4 -14 -3 -7 6
-21 20 -30 21 -13 26 -14 26 -2 0 7 -7 16 -15 20 -8 3 -15 12 -15 21 0 9 7 18
15 21 22 9 18 24 -6 24 -11 0 -17 5 -14 10 3 6 24 10 46 10 36 0 39 -2 40 -27z
m1380 -1523 c19 -24 39 -38 46 -35 8 3 11 0 7 -6 -6 -11 -1 -25 42 -111 13
-27 24 -56 24 -66 0 -10 7 -28 16 -40 16 -24 7 -30 -15 -9 -11 10 -12 8 -4 -8
10 -21 10 -81 0 -91 -3 -3 -11 3 -18 14 -12 18 -13 18 -42 -15 -37 -42 -63
-56 -101 -55 -22 1 -26 -2 -16 -8 12 -7 11 -10 -5 -16 -12 -5 -20 -3 -23 5 -2
7 -22 29 -44 49 -81 75 -92 183 -25 259 12 13 17 30 14 43 -3 11 -1 20 4 20 5
0 9 -5 9 -12 0 -27 14 6 14 35 1 31 2 32 39 29 39 -4 45 5 27 39 -20 36 17 21
51 -21z"/>
<path d="M5081 5531 c-9 -6 -5 -10 15 -14 80 -15 131 -31 145 -43 8 -8 34 -14
57 -14 23 0 51 -6 62 -12 15 -10 27 -10 50 -1 18 7 30 7 30 2 0 -6 5 -7 10 -4
16 10 70 -5 70 -20 0 -8 7 -11 20 -8 11 3 20 9 20 14 0 5 9 9 20 9 25 0 44
-32 28 -48 -9 -9 -6 -12 14 -12 37 0 58 10 58 26 0 12 4 12 21 2 18 -11 23
-10 40 15 20 25 49 37 49 19 0 -5 11 -14 24 -20 20 -9 23 -17 21 -56 -1 -32 2
-43 9 -36 5 5 18 10 27 10 10 0 30 11 46 24 82 68 154 97 165 64 3 -8 10 -8
26 3 l22 16 -24 13 c-18 9 -50 11 -118 6 -71 -5 -99 -3 -119 7 -14 8 -41 13
-60 12 -19 -2 -51 5 -72 15 -51 25 -94 34 -102 21 -3 -6 -13 -11 -21 -11 -8 0
-12 5 -9 10 10 16 -22 12 -39 -5 -16 -16 -132 -22 -122 -6 3 4 -20 2 -52 -5
-73 -17 -122 -18 -147 -1 -19 12 -112 37 -138 37 -7 0 -18 -4 -26 -9z"/>
<path d="M7850 720 l0 -170 30 0 30 0 0 68 c0 75 9 92 52 92 l28 0 0 -80 0
-80 36 0 36 0 -4 95 c-2 80 -6 97 -23 110 -18 14 -63 16 -105 4 -12 -3 -16 9
-18 64 -3 67 -3 67 -32 67 l-30 0 0 -170z"/>
<path d="M10153 873 c-27 -5 -63 -48 -63 -75 0 -27 26 -74 45 -82 46 -17 91
-4 110 35 21 39 19 64 -7 93 -25 27 -51 35 -85 29z"/>
<path d="M7560 711 l0 -161 35 0 35 0 0 54 0 53 49 6 c72 9 108 30 120 72 12
46 1 84 -33 109 -22 17 -46 22 -117 24 l-89 4 0 -161z"/>
<path d="M8859 868 c0 -2 -2 -74 -4 -160 l-3 -158 40 0 40 0 -4 60 c-3 51 -1
60 14 60 10 0 35 -26 58 -60 38 -57 43 -60 81 -60 l40 0 -40 58 c-47 66 -48
73 -21 89 10 7 25 31 31 53 11 36 10 44 -8 68 -30 41 -60 52 -145 52 -43 0
-78 -1 -79 -2z"/>
<path d="M8410 800 c0 -20 -5 -30 -15 -30 -10 0 -15 -10 -15 -30 0 -20 5 -30
15 -30 12 0 15 -13 15 -60 0 -51 4 -65 25 -85 38 -39 105 -32 105 11 0 20 -5
24 -30 24 -30 0 -30 1 -30 55 0 54 0 55 30 55 27 0 30 3 30 30 0 27 -3 30 -30
30 -27 0 -30 3 -30 30 0 28 -3 30 -35 30 -32 0 -35 -2 -35 -30z"/>
<path d="M8180 763 c-27 -10 -59 -46 -70 -78 -20 -60 24 -129 91 -140 105 -18
181 75 134 165 -25 48 -99 73 -155 53z"/>
<path d="M8615 748 c-73 -57 -65 -152 17 -194 76 -39 178 18 178 101 0 91
-122 150 -195 93z"/>
<path d="M9164 736 c-89 -89 2 -224 125 -187 53 15 81 52 81 105 0 71 -51 116
-131 116 -33 0 -47 -6 -75 -34z"/>
<path d="M9480 763 c-8 -3 -27 -17 -42 -31 -78 -72 -10 -200 100 -189 83 9
130 85 99 160 -23 54 -97 82 -157 60z"/>
<path d="M9690 660 l0 -110 35 0 34 0 3 78 c3 77 3 77 32 80 38 5 46 -10 46
-90 l0 -68 30 0 30 0 0 75 c0 71 1 75 25 81 48 12 55 1 55 -81 l0 -75 35 0 35
0 0 85 c0 78 -2 88 -25 110 -27 28 -66 32 -106 11 -22 -11 -29 -11 -44 0 -24
17 -77 18 -94 2 -11 -10 -14 -10 -18 0 -3 6 -20 12 -39 12 l-34 0 0 -110z"/>
</g>
</svg>
